<svg width="24" height="24" viewBox="0 0 24 24" fill="none" xmlns="http://www.w3.org/2000/svg">
<g clip-path="url(#clip0_2_41)">
<path d="M0.59111 13.4256L10.5829 23.4297C10.7729 23.6119 10.997 23.7547 11.2423 23.8499C11.7289 24.05 12.2746 24.05 12.7611 23.8499C13.0064 23.7547 13.2305 23.6119 13.4205 23.4297L23.4123 13.4256C23.5986 13.239 23.7464 13.0176 23.8473 12.7738C23.9481 12.5301 24 12.2688 24 12.005C24 11.4722 23.7886 10.9612 23.4123 10.5844C23.036 10.2076 22.5256 9.99597 21.9935 9.99597C21.4613 9.99597 20.9509 10.2076 20.5746 10.5844L14.0001 17.1871L14.0001 2.00083C14.0001 1.47018 13.7895 0.961258 13.4148 0.586029C13.04 0.2108 12.5317 1.90735e-06 12.0017 1.90735e-06C11.4717 1.90735e-06 10.9634 0.2108 10.5887 0.586029C10.2139 0.961258 10.0034 1.47018 10.0034 2.00083L10.0034 17.1871L3.42877 10.5844C3.243 10.3969 3.02198 10.248 2.77846 10.1464C2.53494 10.0449 2.27375 9.99256 2.00994 9.99256C1.74613 9.99256 1.48494 10.0449 1.24142 10.1464C0.997902 10.248 0.776884 10.3969 0.59111 10.5844C0.403809 10.7704 0.255138 10.9917 0.153685 11.2355C0.0522308 11.4793 0 11.7409 0 12.005C0 12.2691 0.0522308 12.5306 0.153685 12.7745C0.255138 13.0183 0.403809 13.2396 0.59111 13.4256Z" fill="#E4120A"/>
</g>
<defs>
<clipPath id="clip0_2_41">
<rect width="24" height="24" fill="white" transform="matrix(-1 0 0 -1 24 24)"/>
</clipPath>
</defs>
</svg>
