<svg width="24" height="24" viewBox="0 0 24 24" fill="none" xmlns="http://www.w3.org/2000/svg">
<g clip-path="url(#clip0_2_31)">
<path d="M23.4089 10.5744L13.4171 0.570264C13.2271 0.388107 13.003 0.245318 12.7577 0.150089C12.2711 -0.0500298 11.7254 -0.0500298 11.2389 0.150089C10.9936 0.245318 10.7695 0.388107 10.5795 0.570264L0.587699 10.5744C0.401376 10.761 0.253576 10.9824 0.152739 11.2262C0.051901 11.4699 0 11.7312 0 11.995C0 12.5278 0.211402 13.0388 0.587699 13.4156C0.963996 13.7924 1.47437 14.004 2.00653 14.004C2.53869 14.004 3.04906 13.7924 3.42536 13.4156L9.99994 6.81286V21.9992C9.99994 22.5298 10.2105 23.0387 10.5852 23.414C10.96 23.7892 11.4683 24 11.9983 24C12.5283 24 13.0366 23.7892 13.4113 23.414C13.7861 23.0387 13.9966 22.5298 13.9966 21.9992V6.81286L20.5712 13.4156C20.757 13.6031 20.978 13.752 21.2215 13.8536C21.4651 13.9551 21.7263 14.0074 21.9901 14.0074C22.2539 14.0074 22.5151 13.9551 22.7586 13.8536C23.0021 13.752 23.2231 13.6031 23.4089 13.4156C23.5962 13.2296 23.7449 13.0083 23.8463 12.7645C23.9478 12.5207 24 12.2591 24 11.995C24 11.7309 23.9478 11.4694 23.8463 11.2255C23.7449 10.9817 23.5962 10.7604 23.4089 10.5744Z" fill="#2F924B"/>
</g>
<defs>
<clipPath id="clip0_2_31">
<rect width="24" height="24" fill="white"/>
</clipPath>
</defs>
</svg>
